<svg width="226" height="70" viewBox="0 0 226 70" fill="none" xmlns="http://www.w3.org/2000/svg">
<path fill-rule="evenodd" clip-rule="evenodd" d="M51.1018 43.8748C51.1018 57.8613 39.6623 69.1996 25.5509 69.1996C11.4395 69.1996 0 57.8613 0 43.8748V29.6496H51.1018V43.8748Z" fill="#68D6F4"/>
<path fill-rule="evenodd" clip-rule="evenodd" d="M37.3084 43.8748C37.9594 37.4957 36.0187 29.9904 34.0105 25.5409C34.0105 25.5409 52.8459 9.10609 43.9103 4.16348C34.9747 -0.77913 26.7085 20.6957 26.7085 20.6957H23.6379C23.6379 20.6957 15.3533 -0.766956 6.44222 4.16348C-2.46881 9.09391 16.342 25.5652 16.342 25.5652C14.3399 30.0148 12.3931 37.52 13.0503 43.8991L37.3084 43.8748Z" fill="white"/>
<path fill-rule="evenodd" clip-rule="evenodd" d="M25.554 34.227C30.9291 34.2303 35.2841 38.5513 35.2818 43.8788C35.2795 49.2064 30.9209 53.5237 25.5458 53.5226C20.1707 53.5215 15.8139 49.2023 15.8139 43.8748C15.8172 38.5454 20.1771 34.227 25.554 34.227Z" fill="white"/>
<path fill-rule="evenodd" clip-rule="evenodd" d="M23.5519 30.1061C24.1131 30.1192 24.5621 30.5723 24.5652 31.1287V35.9983C24.5899 36.2763 24.4892 36.5508 24.2901 36.7482C24.091 36.9455 23.814 37.0454 23.5335 37.0209C22.9651 37.0175 22.5051 36.5616 22.5017 35.9983V31.1287C22.5051 30.5653 22.9651 30.1094 23.5335 30.1061H23.5519ZM40.3791 43.8748C40.3791 44.0371 40.3791 44.1994 40.3791 44.3617C40.1268 52.2803 33.5718 58.567 25.5785 58.5565C21.6464 58.5636 17.8736 57.0171 15.0953 54.2591C12.4437 51.625 10.9061 48.0873 10.7964 44.3678H10.7473V44.3009C10.7473 43.3087 10.7473 42.2983 10.7473 41.2939C10.7473 40.2896 10.864 39.2609 10.9622 38.2504C11.3458 34.1617 12.1189 30.1182 13.2714 26.1739C10.6367 23.6965 4.88234 17.8043 2.89256 12.4113C1.99288 10.1867 1.99068 7.70441 2.88642 5.47826C3.49238 4.05728 4.50419 2.84284 5.79739 1.98435C7.08454 1.1332 8.58659 0.656626 10.1332 0.608695C12.6289 0.558716 15.0481 1.46336 16.8886 3.13478C20.905 6.60435 24.0186 12.9957 25.5478 16.5809C27.077 12.9957 30.1968 6.60435 34.2132 3.13478C36.0432 1.47412 38.4448 0.570314 40.9257 0.608695C42.4716 0.654816 43.9736 1.12926 45.2614 1.97826C46.5555 2.83838 47.5674 4.05504 48.1724 5.47826C49.0668 7.70005 49.0668 10.1773 48.1724 12.3991C46.1826 17.8043 40.4282 23.6904 37.7874 26.1739L37.941 26.6913C38.2051 27.5922 38.4323 28.4322 38.6165 29.193C39.7885 33.9903 40.3822 38.9084 40.3852 43.8443L40.3791 43.8748ZM16.1762 43.8748H16.2253C16.2262 46.3232 17.2094 48.6708 18.9582 50.4C20.7016 52.1404 23.0734 53.1197 25.5478 53.1209C30.6919 53.1075 34.8596 48.9794 34.8765 43.8809C34.8784 39.3693 34.3362 34.8736 33.2613 30.4896C33.0402 29.5765 32.8355 28.8278 32.6472 28.2435C32.4752 27.6348 32.2664 27.0261 32.033 26.3626V26.3261L31.4189 24.5974L32.8253 23.38C32.8253 23.38 40.8765 16.3252 42.9891 10.5548C43.4011 9.61994 43.4406 8.56515 43.0997 7.60261C42.9131 7.15608 42.5967 6.77467 42.1908 6.50696C41.7594 6.22588 41.2574 6.06987 40.7414 6.05652C39.6448 6.06384 38.5924 6.48628 37.7997 7.23739C33.163 11.2791 29.6871 20.9939 29.6748 21.0183L29.0238 22.8443H22.035L21.384 21.0183C21.384 21.0183 17.9265 11.2791 13.2529 7.23739C12.4602 6.48628 11.4079 6.06384 10.3113 6.05652C9.79523 6.06987 9.29323 6.22588 8.8619 6.50696C8.45593 6.77467 8.13953 7.15608 7.95299 7.60261C7.61206 8.56515 7.65156 9.61994 8.06353 10.5548C10.1884 16.3252 18.2151 23.3374 18.2397 23.3374L19.646 24.5548L19.0319 26.2957C17.677 30.3337 16.7931 34.5122 16.3973 38.7496C16.3113 39.6687 16.2438 40.5757 16.2069 41.507C16.1762 42.3226 16.1639 43.1139 16.1762 43.8809V43.8748ZM21.2919 43.7409C21.5928 45.0557 22.686 46.3096 24.1353 47.393C25.5847 48.4765 25.6584 48.4035 27.1016 47.2957C28.5448 46.1878 29.5213 45.013 29.8099 43.7348C30.6267 40.1739 20.4751 40.1739 21.2919 43.7348V43.7409ZM27.6789 30.1061C28.2473 30.1094 28.7072 30.5653 28.7106 31.1287V35.9983C28.7353 36.2763 28.6346 36.5508 28.4355 36.7482C28.2364 36.9455 27.9593 37.0454 27.6789 37.0209C27.1104 37.0175 26.6505 36.5616 26.6471 35.9983V31.1287C26.6505 30.5653 27.1104 30.1094 27.6789 30.1061Z" fill="#572F8C"/>
<path fill-rule="evenodd" clip-rule="evenodd" d="M185.738 48.9026H190.307C196.712 48.9026 200.041 44.1791 200.041 39.3339C200.041 34.4887 196.718 29.6496 190.307 29.6496H182.397C181.523 29.6366 180.68 29.9689 180.055 30.5731C179.429 31.1774 179.072 32.0037 179.062 32.8696V54.0035H185.738V48.9026ZM142.804 29.6496C141.929 29.6349 141.085 29.9665 140.458 30.571C139.831 31.1754 139.473 32.0027 139.463 32.8696V54.0035H146.163V35.5904H155.492L161.516 46.2243L157.31 53.9974H164.464L177.92 29.6496H170.476L165.054 39.8757L159.643 29.6496H142.804ZM203.676 53.9974H210.849L224.305 29.6496H216.856L211.433 39.8757L206.022 29.6496H198.487L207.883 46.2243L203.676 53.9974ZM106.859 44.6904V39.0904H94.9139V35.2496H108.087V29.6496H91.5791C90.7056 29.6366 89.8628 29.9689 89.2371 30.5731C88.6113 31.1774 88.2541 32.0037 88.2444 32.8696V50.8017C88.2747 52.598 89.7668 54.0306 91.5791 54.0035H108.191V48.4035H94.9139V44.6904H106.859ZM127.659 39.0904H119.369V29.6496H112.675V53.9974H119.35V44.8183H127.641V54.0035H134.31V29.6557H127.635V39.0904H127.659ZM63.1817 29.6496H69.8573V53.9974H63.1817V29.6496ZM71.3865 40.0948L78.0314 29.6496H85.751L77.8963 41.3913L87.0407 53.9974H78.6455L71.3927 43.1809C70.7608 42.2475 70.7608 41.0282 71.3927 40.0948H71.3865ZM185.738 35.4565H189.871C194.784 35.4565 194.784 43.2052 189.871 43.2052H185.738V35.4626V35.4565Z" fill="white"/>
<path d="M63.3721 58.3678H70.9689V59.9991H68.0518V66.3478H66.2831V59.993H63.366L63.3721 58.3678Z" fill="white"/>
<path fill-rule="evenodd" clip-rule="evenodd" d="M79.5662 62.4018C79.603 60.1204 77.7779 58.2359 75.4766 58.1791C74.3377 58.1246 73.2273 58.5424 72.4117 59.3323C71.5962 60.1221 71.1491 61.2128 71.1777 62.3426C71.1818 64.6242 73.0404 66.4763 75.3424 66.4925C77.6443 66.5088 79.5294 64.6831 79.5662 62.4018ZM77.294 64.1695C76.8176 64.651 76.1562 64.9076 75.4766 64.8748C74.0674 64.8748 72.9249 63.7425 72.9249 62.3456C72.9249 60.9488 74.0674 59.8165 75.4766 59.8165C76.153 59.8059 76.8039 60.0721 77.2758 60.5525C77.7477 61.0329 77.9988 61.6849 77.97 62.3548C78.0164 63.0276 77.7704 63.688 77.294 64.1695Z" fill="white"/>
<path fill-rule="evenodd" clip-rule="evenodd" d="M81.0652 58.3678H84.5043C86.7398 58.3678 87.9005 58.9339 87.9005 60.4861C87.9027 61.146 87.5645 61.7614 87.0039 62.1174C87.7505 62.4236 88.2087 63.1764 88.1339 63.9739C88.1339 65.5383 86.9056 66.3539 84.879 66.3539H81.0652V58.3678ZM82.8339 59.9504V61.533H84.9097C85.6405 61.533 86.0704 61.2713 86.0704 60.7174C86.0704 60.0722 85.4562 59.9504 84.4552 59.9504H82.8339ZM82.8339 64.7774V63.0548H84.7561C85.8063 63.0548 86.3037 63.3287 86.3037 63.9313C86.3037 64.5339 85.7633 64.7774 84.707 64.7774H82.8339Z" fill="white"/>
<path fill-rule="evenodd" clip-rule="evenodd" d="M92.7644 58.1852C91.5296 58.1495 90.3256 58.5704 89.3867 59.3661L90.2772 60.6565C90.9061 60.0969 91.7167 59.7794 92.5617 59.7617C93.8637 59.7617 94.2997 60.4374 94.2997 61.5878C93.7592 61.4434 93.2014 61.3717 92.6416 61.3748C90.5044 61.3748 88.877 62.1296 88.877 63.913C88.877 65.447 90.0377 66.433 91.8064 66.433C92.7386 66.4768 93.6454 66.1248 94.2997 65.4652V66.3417H96.0684V61.4722C96.0684 59.4026 94.8893 58.1852 92.7644 58.1852ZM94.2997 63.073V63.8339C93.835 64.5384 93.0361 64.955 92.1871 64.9356C91.3151 64.9356 90.7009 64.5278 90.7009 63.9191C90.7009 63.1217 91.5546 62.86 92.8258 62.86C93.325 62.8593 93.8216 62.931 94.2997 63.073Z" fill="white"/>
<path fill-rule="evenodd" clip-rule="evenodd" d="M99.4154 58.3678H97.6467V69.4217H99.4216V65.8243C100.007 66.3138 100.765 66.5524 101.528 66.4878C103.942 66.4878 105.557 64.5948 105.557 62.227C105.557 59.8591 104.071 58.1852 101.651 58.1852C100.808 58.1516 99.9924 58.4826 99.4154 59.0922V58.3678ZM99.4154 63.8826V61.1191H99.4338C99.7908 60.3293 100.581 59.8198 101.454 59.8165C102.855 59.8165 103.72 60.7539 103.72 62.367C103.773 63.0237 103.541 63.6717 103.083 64.149C102.625 64.6264 101.984 64.8881 101.319 64.8687C100.553 64.8979 99.8287 64.5227 99.4154 63.8826Z" fill="white"/>
<path fill-rule="evenodd" clip-rule="evenodd" d="M106.859 58.3678H108.627V60.687H110.021C112.625 60.687 113.43 61.9956 113.43 63.4991C113.43 65.0026 112.515 66.36 109.893 66.36H106.859V58.3678ZM108.627 62.3183V64.753H109.856C111.145 64.753 111.594 64.3209 111.594 63.5356C111.594 62.7504 111.115 62.3183 109.874 62.3183H108.627ZM115.997 58.3678H114.228V66.3478H115.997V58.3678Z" fill="white"/>
<path fill-rule="evenodd" clip-rule="evenodd" d="M121.475 64.7287H120.548L120.566 68.1739H122.212V66.3478H128.015V68.1739H129.661V64.7287H128.531V58.3678H122.39V59.7496C122.39 61.8252 122.206 63.4687 121.475 64.7287ZM123.293 64.7287C123.825 63.4373 124.084 62.0513 124.054 60.6565V59.993H126.781V64.7287H123.293Z" fill="white"/>
<path d="M136.159 59.993H133.309V61.2104C133.309 65.4713 131.915 66.5548 129.913 66.3904L129.772 64.7591C130.626 64.8383 131.571 64.3148 131.571 60.6078V58.3678H137.928V66.3478H136.159V59.993Z" fill="white"/>
<path fill-rule="evenodd" clip-rule="evenodd" d="M146.28 66.3478V58.3678L142.97 58.3496C140.335 58.3496 139.389 59.5791 139.389 60.9913C139.316 62.1415 140.097 63.1739 141.232 63.4261L138.904 66.3478H140.968L143.006 63.7304H144.511V66.3478H146.28ZM144.511 62.087H142.761C141.754 62.087 141.207 61.7157 141.207 61.0704C141.207 60.4252 141.655 59.993 142.804 59.993H144.511V62.087Z" fill="white"/>
<path d="M150.744 58.3678H152.918L155.737 61.4843V58.3678H157.506V61.4783L160.392 58.3435H162.53L159.183 61.9956L162.609 66.36H160.454L157.85 62.9817L157.506 63.3348V66.3783H155.737V63.3652L155.363 62.9817L152.826 66.3478H150.72L154.067 62.0017L150.744 58.3678Z" fill="white"/>
<path d="M163.359 66.3478V58.3678H165.127V63.5783L169.426 58.3678H170.962V66.3478H169.193V61.1617L164.894 66.3539L163.359 66.3478Z" fill="white"/>
<path fill-rule="evenodd" clip-rule="evenodd" d="M172.62 58.3678H176.059C178.294 58.3678 179.455 58.9339 179.455 60.4861C179.457 61.146 179.119 61.7614 178.558 62.1174C179.305 62.4236 179.763 63.1764 179.688 63.9739C179.688 65.5383 178.46 66.3539 176.434 66.3539H172.62V58.3678ZM174.388 59.9504V61.533H176.464C177.195 61.533 177.625 61.2713 177.625 60.7174C177.625 60.0722 177.011 59.9504 176.01 59.9504H174.388ZM174.388 64.7774V63.0548H176.305C177.355 63.0548 177.852 63.3287 177.852 63.9313C177.852 64.5339 177.312 64.7774 176.255 64.7774H174.388Z" fill="white"/>
<path fill-rule="evenodd" clip-rule="evenodd" d="M188.943 62.4018C188.98 60.1204 187.155 58.2359 184.853 58.1791C183.714 58.1246 182.604 58.5424 181.788 59.3323C180.973 60.1221 180.526 61.2128 180.554 62.3426C180.558 64.6242 182.417 66.4763 184.719 66.4925C187.021 66.5088 188.906 64.6831 188.943 62.4018ZM186.671 64.1695C186.194 64.651 185.533 64.9076 184.853 64.8748V64.8687C183.444 64.8687 182.302 63.7364 182.302 62.3396C182.302 60.9428 183.444 59.8104 184.853 59.8104C185.531 59.7997 186.183 60.0668 186.655 60.5485C187.127 61.0303 187.377 61.6839 187.347 62.3548C187.393 63.0276 187.147 63.688 186.671 64.1695Z" fill="white"/>
<path d="M189.367 58.3678H196.964V59.9991H194.065V66.3478H192.297V59.993H189.379L189.367 58.3678Z" fill="white"/>
<path d="M203.474 63.1156H199.592V66.3478H197.824V58.3678H199.592V61.4783H203.468V58.3678H205.236V66.3478H203.468L203.474 63.1156Z" fill="white"/>
<path fill-rule="evenodd" clip-rule="evenodd" d="M206.901 58.3678H208.669V60.687H210.033C212.637 60.687 213.441 61.9956 213.441 63.4991C213.441 65.0026 212.526 66.36 209.904 66.36H206.901V58.3678ZM208.669 62.3183V64.753H209.897C211.187 64.753 211.635 64.3209 211.635 63.5356C211.635 62.7504 211.156 62.3183 209.916 62.3183H208.669ZM216.051 58.3678H214.282V66.3478H216.051V58.3678Z" fill="white"/>
<path d="M222.278 62.2209L225.521 66.3539H223.335L221.148 63.5113L218.913 66.3478H216.819L220.043 62.2452L216.972 58.3557H219.14L221.185 60.9243L223.23 58.3557H225.386L222.278 62.2209Z" fill="white"/>
</svg>
